<svg xmlns="http://www.w3.org/2000/svg" xmlns:xlink="http://www.w3.org/1999/xlink" width="176" height="176" viewBox="0 0 176 176">
  <defs>
    <linearGradient id="linear-gradient" x1="0.215" y1="0.5" x2="0.858" y2="0.903" gradientUnits="objectBoundingBox">
      <stop offset="0" stop-color="#c967d5"/>
      <stop offset="1" stop-color="#31ffca"/>
    </linearGradient>
    <filter id="Path_4" x="0" y="0" width="176" height="176" filterUnits="userSpaceOnUse">
      <feOffset dx="5" dy="10" input="SourceAlpha"/>
      <feGaussianBlur stdDeviation="7.5" result="blur"/>
      <feFlood flood-opacity="0.102"/>
      <feComposite operator="in" in2="blur"/>
      <feComposite in="SourceGraphic"/>
    </filter>
    <clipPath id="clip-path">
      <rect id="Rectangle_8" data-name="Rectangle 8" width="60" height="60" transform="translate(1216 343)" stroke="#707070" stroke-width="1" fill="url(#linear-gradient)"/>
    </clipPath>
  </defs>
  <g id="Component_2_1" data-name="Component 2 – 1" transform="translate(17.5 12.5)">
    <g transform="matrix(1, 0, 0, 1, -17.5, -12.5)" filter="url(#Path_4)">
      <path id="Path_4-2" data-name="Path 4" d="M65.5,0A65.5,65.5,0,1,1,0,65.5,65.5,65.5,0,0,1,65.5,0Z" transform="translate(17.5 12.5)" fill="#fff"/>
    </g>
    <g id="Banana" transform="translate(-1184 -308)" clip-path="url(#clip-path)">
      <path id="banana-2" data-name="banana" d="M50.6,49.418a52.7,52.7,0,0,1-4.771,5.331A29.065,29.065,0,0,1,41.7,58.165a16.173,16.173,0,0,1-3.24,1.679,6.2,6.2,0,0,1-2.385.471,2.29,2.29,0,0,1-1.384-.471,3.766,3.766,0,0,1-.736-2.68,15.7,15.7,0,0,1,.619-4.389,11.9,11.9,0,0,1,1.768-3.887,55.974,55.974,0,0,0,7.54-13.371,49.3,49.3,0,0,1-8.246,8.1,25.78,25.78,0,0,1-8.66,4.567,26.154,26.154,0,0,1-7.128.854,23.538,23.538,0,0,1-5.861-.795q-2.445-.706-2.68-1.65-.235-.825,2.239-2.945A41.8,41.8,0,0,1,19.2,39.61a22.008,22.008,0,0,1,4.889-2.385q1.3-.354,3.887-3Q20.792,37.7,15.078,37.7a25.834,25.834,0,0,1-5.536-.619,26.608,26.608,0,0,1-4.86-1.5,17.341,17.341,0,0,1-3.357-1.855Q0,32.749,0,32.042q0-1.355,6.037-3.505t9.041-2.148q1.826,0,6.626-3.093a86.379,86.379,0,0,0,9.985-7.629,56.77,56.77,0,0,0,7.892-8.129Q41,5.653,44.236,5.77A18.332,18.332,0,0,0,45.413,0h3.592q0,2-.059,3.77v.059l.03-.03.03-.03A11.053,11.053,0,0,1,53.366,7.6h.059l.059.059a10.733,10.733,0,0,1,5.8,7.01,25.913,25.913,0,0,1,.825,11.25A51.8,51.8,0,0,1,56.782,38.4,44.1,44.1,0,0,1,50.6,49.418Z" transform="translate(1215.897 343.002)" fill="url(#linear-gradient)"/>
    </g>
  </g>
</svg>
