<svg xmlns="http://www.w3.org/2000/svg" xmlns:xlink="http://www.w3.org/1999/xlink" width="176" height="176" viewBox="0 0 176 176">
  <defs>
    <linearGradient id="linear-gradient" x1="0.215" y1="0.5" x2="0.858" y2="0.903" gradientUnits="objectBoundingBox">
      <stop offset="0" stop-color="#c967d5"/>
      <stop offset="1" stop-color="#31ffca"/>
    </linearGradient>
    <filter id="Path_5" x="0" y="0" width="176" height="176" filterUnits="userSpaceOnUse">
      <feOffset dx="5" dy="10" input="SourceAlpha"/>
      <feGaussianBlur stdDeviation="7.5" result="blur"/>
      <feFlood flood-opacity="0.11"/>
      <feComposite operator="in" in2="blur"/>
      <feComposite in="SourceGraphic"/>
    </filter>
  </defs>
  <g id="Component_2_1" data-name="Component 2 – 1" transform="translate(17.5 12.5)">
    <g transform="matrix(1, 0, 0, 1, -17.5, -12.5)" filter="url(#Path_5)">
      <path id="Path_5-2" data-name="Path 5" d="M65.5,0A65.5,65.5,0,1,1,0,65.5,65.5,65.5,0,0,1,65.5,0Z" transform="translate(17.5 12.5)" fill="url(#linear-gradient)"/>
    </g>
    <g id="Ellipse_32" data-name="Ellipse 32" transform="translate(6 6)" fill="#fff" stroke="rgba(112,112,112,0)" stroke-width="5">
      <circle cx="60" cy="60" r="60" stroke="none"/>
      <circle cx="60" cy="60" r="57.5" fill="none"/>
    </g>
    <path id="Text" d="M-26.7.531a10.487,10.487,0,0,0,10.68-9.27h-5.917a4.83,4.83,0,0,1-4.75,3.852c-2.974,0-5.155-2.357-5.155-5.6s2.181-5.643,5.155-5.643a4.966,4.966,0,0,1,4.745,3.552h5.862A10.427,10.427,0,0,0-26.7-21.531,10.837,10.837,0,0,0-37.862-10.482,10.83,10.83,0,0,0-26.7.531Zm23.918,0C3.955.531,8.755-4.064,8.755-10.5S3.955-21.531-2.778-21.531c-6.751,0-11.568,4.613-11.568,11.031S-9.529.531-2.778.531Zm0-5.383A5.424,5.424,0,0,1-8.323-10.5a5.424,5.424,0,0,1,5.545-5.647A5.387,5.387,0,0,1,2.731-10.5a5.387,5.387,0,0,1-5.51,5.647ZM15.572,7.24C18.061,4.357,18.6,3.233,18.6,1.769c0-2.185-1.7-3.7-4.173-3.7a3.729,3.729,0,0,0-4.09,3.908V2.19h3.076V1.965A1.019,1.019,0,0,1,14.468.824a.983.983,0,0,1,1.012,1.054c0,1-.645,1.891-5.327,7.414V10h8.655V7.24ZM38.017-8.254c0-4.752-3.616-8.477-8.837-8.477a8.448,8.448,0,0,0-8.8,8.618,8.5,8.5,0,0,0,8.8,8.644,8.53,8.53,0,0,0,8.482-6.007H32.108a3.253,3.253,0,0,1-2.929,1.519,3.147,3.147,0,0,1-3.307-2.819H37.9a10.265,10.265,0,0,0,.115-1.477Zm-8.838-4.1a3.256,3.256,0,0,1,3.34,2.493H25.97A3.136,3.136,0,0,1,29.179-12.359Z" transform="translate(65.862 71.531)" fill="url(#linear-gradient)"/>
  </g>
</svg>
